<svg width="248" height="116" viewBox="0 0 248 116" fill="none" xmlns="http://www.w3.org/2000/svg">
<path d="M41.2012 79H33.1016V50C33.1016 49.4336 32.9883 48.9049 32.7617 48.4141C32.554 47.9232 32.2614 47.4984 31.8838 47.1396C31.5251 46.762 31.1003 46.4694 30.6094 46.2617C30.1185 46.054 29.5898 45.9502 29.0234 45.9502C28.457 45.9502 27.9284 46.054 27.4375 46.2617C26.9466 46.4694 26.5124 46.762 26.1348 47.1396C25.776 47.4984 25.4928 47.9232 25.2852 48.4141C25.0775 48.9049 24.9736 49.4336 24.9736 50V79H16.8457V50C16.8457 49.4336 16.7419 48.9049 16.5342 48.4141C16.3265 47.9232 16.0339 47.4984 15.6562 47.1396C15.2975 46.762 14.8727 46.4694 14.3818 46.2617C13.891 46.054 13.3623 45.9502 12.7959 45.9502C12.2295 45.9502 11.7008 46.054 11.21 46.2617C10.7191 46.4694 10.2848 46.762 9.90723 47.1396C9.5485 47.4984 9.2653 47.9232 9.05762 48.4141C8.84993 48.9049 8.74609 49.4336 8.74609 50V79H0.618164V50C0.618164 48.3197 0.929688 46.7432 1.55273 45.2705C2.19466 43.779 3.06315 42.4857 4.1582 41.3906C5.27214 40.2767 6.56543 39.4082 8.03809 38.7852C9.52962 38.1432 11.1156 37.8223 12.7959 37.8223C14.3063 37.8223 15.7601 38.096 17.1572 38.6436C18.5544 39.1722 19.8099 39.9463 20.9238 40.9658C22.0378 39.9463 23.2839 39.1722 24.6621 38.6436C26.0592 38.096 27.513 37.8223 29.0234 37.8223C30.7038 37.8223 32.2803 38.1432 33.7529 38.7852C35.2445 39.4082 36.5378 40.2767 37.6328 41.3906C38.7467 42.4857 39.6152 43.779 40.2383 45.2705C40.8802 46.7432 41.2012 48.3197 41.2012 50V79Z" fill="#717171"/>
<path d="M88.2695 58.8643C88.2695 60.79 88.0146 62.6497 87.5049 64.4434C87.014 66.2181 86.3154 67.889 85.4092 69.4561C84.5029 71.0042 83.4079 72.4202 82.124 73.7041C80.8402 74.988 79.4242 76.0924 77.876 77.0176C76.3278 77.9238 74.6569 78.6224 72.8633 79.1133C71.0697 79.623 69.21 79.8779 67.2842 79.8779C65.3584 79.8779 63.4987 79.623 61.7051 79.1133C59.9303 78.6224 58.2594 77.9238 56.6924 77.0176C55.1442 76.0924 53.7282 74.988 52.4443 73.7041C51.1605 72.4202 50.056 71.0042 49.1309 69.4561C48.2246 67.889 47.5166 66.2181 47.0068 64.4434C46.5159 62.6497 46.2705 60.79 46.2705 58.8643C46.2705 56.9385 46.5159 55.0788 47.0068 53.2852C47.5166 51.4915 48.2246 49.8206 49.1309 48.2725C50.056 46.7243 51.1605 45.3083 52.4443 44.0244C53.7282 42.7406 55.1442 41.6455 56.6924 40.7393C58.2594 39.833 59.9303 39.1344 61.7051 38.6436C63.4987 38.1338 65.3584 37.8789 67.2842 37.8789C69.21 37.8789 71.0697 38.1338 72.8633 38.6436C74.6569 39.1344 76.3278 39.833 77.876 40.7393C79.4242 41.6455 80.8402 42.7406 82.124 44.0244C83.4079 45.3083 84.5029 46.7243 85.4092 48.2725C86.3154 49.8206 87.014 51.4915 87.5049 53.2852C88.0146 55.0788 88.2695 56.9385 88.2695 58.8643ZM80.1982 58.8643C80.1982 57.0895 79.8584 55.4186 79.1787 53.8516C78.499 52.2656 77.5739 50.8968 76.4033 49.7451C75.2516 48.5745 73.8828 47.6494 72.2969 46.9697C70.7298 46.29 69.0589 45.9502 67.2842 45.9502C65.4906 45.9502 63.8102 46.29 62.2432 46.9697C60.6761 47.6494 59.3073 48.5745 58.1367 49.7451C56.9661 50.8968 56.041 52.2656 55.3613 53.8516C54.6816 55.4186 54.3418 57.0895 54.3418 58.8643C54.3418 60.639 54.6816 62.3099 55.3613 63.877C56.041 65.4251 56.9661 66.7845 58.1367 67.9551C59.3073 69.1256 60.6761 70.0508 62.2432 70.7305C63.8102 71.4102 65.4906 71.75 67.2842 71.75C69.0589 71.75 70.7298 71.4102 72.2969 70.7305C73.8828 70.0508 75.2516 69.1256 76.4033 67.9551C77.5739 66.7845 78.499 65.4251 79.1787 63.877C79.8584 62.3099 80.1982 60.639 80.1982 58.8643Z" fill="#717171"/>
<path d="M123.925 38.3887L110.586 79H102.458L89.1758 38.3887H98.4082L106.508 65.4912L114.636 38.3887H123.925Z" fill="#717171"/>
<path d="M135.961 79H127.833V38.3887H135.961V79Z" fill="#717171"/>
<path d="M171.361 79H143.522V38.3887H171.361V46.5166H151.65V54.6445H164.989V62.7725H151.65V70.8721H171.361V79Z" fill="#717171"/>
<path d="M209.594 58.6943C209.594 60.5635 209.348 62.3665 208.857 64.1035C208.385 65.8216 207.706 67.4359 206.818 68.9463C205.931 70.4378 204.874 71.8066 203.646 73.0527C202.419 74.2799 201.05 75.3372 199.54 76.2246C198.03 77.112 196.406 77.8011 194.669 78.292C192.951 78.764 191.157 79 189.288 79H177.054V38.3887H189.288C191.157 38.3887 192.951 38.6341 194.669 39.125C196.406 39.597 198.03 40.2767 199.54 41.1641C201.05 42.0514 202.419 43.1182 203.646 44.3643C204.874 45.5915 205.931 46.9603 206.818 48.4707C207.706 49.9622 208.385 51.5765 208.857 53.3135C209.348 55.0316 209.594 56.8252 209.594 58.6943ZM201.466 58.6943C201.466 57.014 201.145 55.4375 200.503 53.9648C199.88 52.4922 199.011 51.2083 197.897 50.1133C196.802 48.9993 195.509 48.1214 194.018 47.4795C192.545 46.8376 190.968 46.5166 189.288 46.5166H185.238V70.8721H189.288C190.968 70.8721 192.545 70.5605 194.018 69.9375C195.509 69.2956 196.802 68.4271 197.897 67.332C199.011 66.2181 199.88 64.9248 200.503 63.4521C201.145 61.9606 201.466 60.3747 201.466 58.6943Z" fill="#717171"/>
<path d="M247.486 66.8223C247.486 68.5026 247.165 70.0791 246.523 71.5518C245.882 73.0244 245.004 74.3177 243.89 75.4316C242.795 76.5267 241.511 77.3952 240.038 78.0371C238.565 78.679 236.989 79 235.309 79H215.003V38.3887H235.309C236.989 38.3887 238.565 38.7096 240.038 39.3516C241.511 39.9935 242.795 40.8714 243.89 41.9854C245.004 43.0804 245.882 44.3643 246.523 45.8369C247.165 47.3096 247.486 48.8861 247.486 50.5664C247.486 51.3216 247.382 52.0957 247.175 52.8887C246.967 53.6816 246.674 54.4463 246.297 55.1826C245.919 55.9189 245.466 56.5892 244.938 57.1934C244.409 57.7975 243.824 58.2979 243.182 58.6943C243.842 59.0531 244.437 59.5439 244.966 60.167C245.494 60.7712 245.948 61.4414 246.325 62.1777C246.703 62.9141 246.986 63.6882 247.175 64.5C247.382 65.293 247.486 66.0671 247.486 66.8223ZM223.131 70.8721H235.309C235.875 70.8721 236.404 70.7682 236.895 70.5605C237.385 70.3529 237.81 70.0697 238.169 69.7109C238.547 69.3333 238.839 68.8991 239.047 68.4082C239.255 67.9173 239.358 67.3887 239.358 66.8223C239.358 66.2559 239.255 65.7272 239.047 65.2363C238.839 64.7454 238.547 64.3206 238.169 63.9619C237.81 63.5843 237.385 63.2917 236.895 63.084C236.404 62.8763 235.875 62.7725 235.309 62.7725H223.131V70.8721ZM223.131 54.6445H235.309C235.875 54.6445 236.404 54.5407 236.895 54.333C237.385 54.1253 237.81 53.8421 238.169 53.4834C238.547 53.1058 238.839 52.6716 239.047 52.1807C239.255 51.6709 239.358 51.1328 239.358 50.5664C239.358 50 239.255 49.4714 239.047 48.9805C238.839 48.4896 238.547 48.0648 238.169 47.7061C237.81 47.3284 237.385 47.0358 236.895 46.8281C236.404 46.6204 235.875 46.5166 235.309 46.5166H223.131V54.6445Z" fill="#717171"/>
<path fill-rule="evenodd" clip-rule="evenodd" d="M0 96H247V106C247 111.523 240.508 116 232.5 116H14.5C6.49187 116 0 111.523 0 106V96ZM29 100.828H50C52.7614 100.828 55 102.371 55 104.276V107.724C55 109.629 52.7614 111.172 50 111.172H29C26.2386 111.172 24 109.629 24 107.724V104.276C24 102.371 26.2386 100.828 29 100.828ZM106 100.828H85C82.2386 100.828 80 102.371 80 104.276V107.724C80 109.629 82.2386 111.172 85 111.172H106C108.761 111.172 111 109.629 111 107.724V104.276C111 102.371 108.761 100.828 106 100.828ZM141 100.828H162C164.761 100.828 167 102.371 167 104.276V107.724C167 109.629 164.761 111.172 162 111.172H141C138.239 111.172 136 109.629 136 107.724V104.276C136 102.371 138.239 100.828 141 100.828ZM218 100.828H197C194.239 100.828 192 102.371 192 104.276V107.724C192 109.629 194.239 111.172 197 111.172H218C220.761 111.172 223 109.629 223 107.724V104.276C223 102.371 220.761 100.828 218 100.828Z" fill="#717171"/>
<path fill-rule="evenodd" clip-rule="evenodd" d="M0 20H247V10C247 4.47715 240.508 0 232.5 0H14.5C6.49187 0 0 4.47715 0 10V20ZM29 15.1724H50C52.7614 15.1724 55 13.6286 55 11.7241V8.27586C55 6.37143 52.7614 4.82759 50 4.82759H29C26.2386 4.82759 24 6.37143 24 8.27586V11.7241C24 13.6286 26.2386 15.1724 29 15.1724ZM106 15.1724H85C82.2386 15.1724 80 13.6286 80 11.7241V8.27586C80 6.37143 82.2386 4.82759 85 4.82759H106C108.761 4.82759 111 6.37143 111 8.27586V11.7241C111 13.6286 108.761 15.1724 106 15.1724ZM141 15.1724H162C164.761 15.1724 167 13.6286 167 11.7241V8.27586C167 6.37143 164.761 4.82759 162 4.82759H141C138.239 4.82759 136 6.37143 136 8.27586V11.7241C136 13.6286 138.239 15.1724 141 15.1724ZM218 15.1724H197C194.239 15.1724 192 13.6286 192 11.7241V8.27586C192 6.37143 194.239 4.82759 197 4.82759H218C220.761 4.82759 223 6.37143 223 8.27586V11.7241C223 13.6286 220.761 15.1724 218 15.1724Z" fill="#717171"/>
</svg>
